<?xml version="1.0" encoding="utf-8" standalone="no"?>
<!DOCTYPE svg PUBLIC "-//W3C//DTD SVG 1.1//EN"
  "http://www.w3.org/Graphics/SVG/1.1/DTD/svg11.dtd">
<svg xmlns:xlink="http://www.w3.org/1999/xlink" width="720pt" height="720pt" viewBox="0 0 720 720" xmlns="http://www.w3.org/2000/svg" version="1.1">
 <metadata>
  <rdf:RDF xmlns:dc="http://purl.org/dc/elements/1.1/" xmlns:cc="http://creativecommons.org/ns#" xmlns:rdf="http://www.w3.org/1999/02/22-rdf-syntax-ns#">
   <cc:Work>
    <dc:type rdf:resource="http://purl.org/dc/dcmitype/StillImage"/>
    <dc:date>2022-10-02T20:26:45.229042</dc:date>
    <dc:format>image/svg+xml</dc:format>
    <dc:creator>
     <cc:Agent>
      <dc:title>Matplotlib v3.5.1, https://matplotlib.org/</dc:title>
     </cc:Agent>
    </dc:creator>
   </cc:Work>
  </rdf:RDF>
 </metadata>
 <defs>
  <style type="text/css">*{stroke-linejoin: round; stroke-linecap: butt}</style>
 </defs>
 <g id="figure_1">
  <g id="patch_1">
   <path d="M 0 720 
L 720 720 
L 720 0 
L 0 0 
z
" style="fill: #ffffff"/>
  </g>
  <g id="axes_1">
   <g id="patch_2">
    <path d="M 90 630 
L 648 630 
L 648 86.4 
L 90 86.4 
z
" style="fill: #ffffff"/>
   </g>
   <g id="matplotlib.axis_1">
    <g id="xtick_1">
     <g id="line2d_1">
      <path d="M 105.849986 630 
L 105.849986 86.4 
" clip-path="url(#p74f88d3367)" style="fill: none; stroke: #ffffff; stroke-linecap: round"/>
     </g>
     <g id="text_1">
      <!-- −200000 -->
      <g style="fill: #262626" transform="translate(84.286548 647.373594)scale(0.11 -0.11)">
       <defs>
        <path id="ArialMT-2212" d="M 3381 1997 
L 356 1997 
L 356 2522 
L 3381 2522 
L 3381 1997 
z
" transform="scale(0.015625)"/>
        <path id="ArialMT-32" d="M 3222 541 
L 3222 0 
L 194 0 
Q 188 203 259 391 
Q 375 700 629 1000 
Q 884 1300 1366 1694 
Q 2113 2306 2375 2664 
Q 2638 3022 2638 3341 
Q 2638 3675 2398 3904 
Q 2159 4134 1775 4134 
Q 1369 4134 1125 3890 
Q 881 3647 878 3216 
L 300 3275 
Q 359 3922 746 4261 
Q 1134 4600 1788 4600 
Q 2447 4600 2831 4234 
Q 3216 3869 3216 3328 
Q 3216 3053 3103 2787 
Q 2991 2522 2730 2228 
Q 2469 1934 1863 1422 
Q 1356 997 1212 845 
Q 1069 694 975 541 
L 3222 541 
z
" transform="scale(0.015625)"/>
        <path id="ArialMT-30" d="M 266 2259 
Q 266 3072 433 3567 
Q 600 4063 929 4331 
Q 1259 4600 1759 4600 
Q 2128 4600 2406 4451 
Q 2684 4303 2865 4023 
Q 3047 3744 3150 3342 
Q 3253 2941 3253 2259 
Q 3253 1453 3087 958 
Q 2922 463 2592 192 
Q 2263 -78 1759 -78 
Q 1097 -78 719 397 
Q 266 969 266 2259 
z
M 844 2259 
Q 844 1131 1108 757 
Q 1372 384 1759 384 
Q 2147 384 2411 759 
Q 2675 1134 2675 2259 
Q 2675 3391 2411 3762 
Q 2147 4134 1753 4134 
Q 1366 4134 1134 3806 
Q 844 3388 844 2259 
z
" transform="scale(0.015625)"/>
       </defs>
       <use xlink:href="#ArialMT-2212"/>
       <use xlink:href="#ArialMT-32" x="58.398438"/>
       <use xlink:href="#ArialMT-30" x="114.013672"/>
       <use xlink:href="#ArialMT-30" x="169.628906"/>
       <use xlink:href="#ArialMT-30" x="225.244141"/>
       <use xlink:href="#ArialMT-30" x="280.859375"/>
       <use xlink:href="#ArialMT-30" x="336.474609"/>
      </g>
     </g>
    </g>
    <g id="xtick_2">
     <g id="line2d_2">
      <path d="M 204.22842 630 
L 204.22842 86.4 
" clip-path="url(#p74f88d3367)" style="fill: none; stroke: #ffffff; stroke-linecap: round"/>
     </g>
     <g id="text_2">
      <!-- 0 -->
      <g style="fill: #262626" transform="translate(201.169904 647.373594)scale(0.11 -0.11)">
       <use xlink:href="#ArialMT-30"/>
      </g>
     </g>
    </g>
    <g id="xtick_3">
     <g id="line2d_3">
      <path d="M 302.606854 630 
L 302.606854 86.4 
" clip-path="url(#p74f88d3367)" style="fill: none; stroke: #ffffff; stroke-linecap: round"/>
     </g>
     <g id="text_3">
      <!-- 200000 -->
      <g style="fill: #262626" transform="translate(284.25576 647.373594)scale(0.11 -0.11)">
       <use xlink:href="#ArialMT-32"/>
       <use xlink:href="#ArialMT-30" x="55.615234"/>
       <use xlink:href="#ArialMT-30" x="111.230469"/>
       <use xlink:href="#ArialMT-30" x="166.845703"/>
       <use xlink:href="#ArialMT-30" x="222.460938"/>
       <use xlink:href="#ArialMT-30" x="278.076172"/>
      </g>
     </g>
    </g>
    <g id="xtick_4">
     <g id="line2d_4">
      <path d="M 400.985288 630 
L 400.985288 86.4 
" clip-path="url(#p74f88d3367)" style="fill: none; stroke: #ffffff; stroke-linecap: round"/>
     </g>
     <g id="text_4">
      <!-- 400000 -->
      <g style="fill: #262626" transform="translate(382.634195 647.373594)scale(0.11 -0.11)">
       <defs>
        <path id="ArialMT-34" d="M 2069 0 
L 2069 1097 
L 81 1097 
L 81 1613 
L 2172 4581 
L 2631 4581 
L 2631 1613 
L 3250 1613 
L 3250 1097 
L 2631 1097 
L 2631 0 
L 2069 0 
z
M 2069 1613 
L 2069 3678 
L 634 1613 
L 2069 1613 
z
" transform="scale(0.015625)"/>
       </defs>
       <use xlink:href="#ArialMT-34"/>
       <use xlink:href="#ArialMT-30" x="55.615234"/>
       <use xlink:href="#ArialMT-30" x="111.230469"/>
       <use xlink:href="#ArialMT-30" x="166.845703"/>
       <use xlink:href="#ArialMT-30" x="222.460938"/>
       <use xlink:href="#ArialMT-30" x="278.076172"/>
      </g>
     </g>
    </g>
    <g id="xtick_5">
     <g id="line2d_5">
      <path d="M 499.363723 630 
L 499.363723 86.4 
" clip-path="url(#p74f88d3367)" style="fill: none; stroke: #ffffff; stroke-linecap: round"/>
     </g>
     <g id="text_5">
      <!-- 600000 -->
      <g style="fill: #262626" transform="translate(481.012629 647.373594)scale(0.11 -0.11)">
       <defs>
        <path id="ArialMT-36" d="M 3184 3459 
L 2625 3416 
Q 2550 3747 2413 3897 
Q 2184 4138 1850 4138 
Q 1581 4138 1378 3988 
Q 1113 3794 959 3422 
Q 806 3050 800 2363 
Q 1003 2672 1297 2822 
Q 1591 2972 1913 2972 
Q 2475 2972 2870 2558 
Q 3266 2144 3266 1488 
Q 3266 1056 3080 686 
Q 2894 316 2569 119 
Q 2244 -78 1831 -78 
Q 1128 -78 684 439 
Q 241 956 241 2144 
Q 241 3472 731 4075 
Q 1159 4600 1884 4600 
Q 2425 4600 2770 4297 
Q 3116 3994 3184 3459 
z
M 888 1484 
Q 888 1194 1011 928 
Q 1134 663 1356 523 
Q 1578 384 1822 384 
Q 2178 384 2434 671 
Q 2691 959 2691 1453 
Q 2691 1928 2437 2201 
Q 2184 2475 1800 2475 
Q 1419 2475 1153 2201 
Q 888 1928 888 1484 
z
" transform="scale(0.015625)"/>
       </defs>
       <use xlink:href="#ArialMT-36"/>
       <use xlink:href="#ArialMT-30" x="55.615234"/>
       <use xlink:href="#ArialMT-30" x="111.230469"/>
       <use xlink:href="#ArialMT-30" x="166.845703"/>
       <use xlink:href="#ArialMT-30" x="222.460938"/>
       <use xlink:href="#ArialMT-30" x="278.076172"/>
      </g>
     </g>
    </g>
    <g id="xtick_6">
     <g id="line2d_6">
      <path d="M 597.742157 630 
L 597.742157 86.4 
" clip-path="url(#p74f88d3367)" style="fill: none; stroke: #ffffff; stroke-linecap: round"/>
     </g>
     <g id="text_6">
      <!-- 800000 -->
      <g style="fill: #262626" transform="translate(579.391063 647.373594)scale(0.11 -0.11)">
       <defs>
        <path id="ArialMT-38" d="M 1131 2484 
Q 781 2613 612 2850 
Q 444 3088 444 3419 
Q 444 3919 803 4259 
Q 1163 4600 1759 4600 
Q 2359 4600 2725 4251 
Q 3091 3903 3091 3403 
Q 3091 3084 2923 2848 
Q 2756 2613 2416 2484 
Q 2838 2347 3058 2040 
Q 3278 1734 3278 1309 
Q 3278 722 2862 322 
Q 2447 -78 1769 -78 
Q 1091 -78 675 323 
Q 259 725 259 1325 
Q 259 1772 486 2073 
Q 713 2375 1131 2484 
z
M 1019 3438 
Q 1019 3113 1228 2906 
Q 1438 2700 1772 2700 
Q 2097 2700 2305 2904 
Q 2513 3109 2513 3406 
Q 2513 3716 2298 3927 
Q 2084 4138 1766 4138 
Q 1444 4138 1231 3931 
Q 1019 3725 1019 3438 
z
M 838 1322 
Q 838 1081 952 856 
Q 1066 631 1291 507 
Q 1516 384 1775 384 
Q 2178 384 2440 643 
Q 2703 903 2703 1303 
Q 2703 1709 2433 1975 
Q 2163 2241 1756 2241 
Q 1359 2241 1098 1978 
Q 838 1716 838 1322 
z
" transform="scale(0.015625)"/>
       </defs>
       <use xlink:href="#ArialMT-38"/>
       <use xlink:href="#ArialMT-30" x="55.615234"/>
       <use xlink:href="#ArialMT-30" x="111.230469"/>
       <use xlink:href="#ArialMT-30" x="166.845703"/>
       <use xlink:href="#ArialMT-30" x="222.460938"/>
       <use xlink:href="#ArialMT-30" x="278.076172"/>
      </g>
     </g>
    </g>
    <g id="text_7">
     <!-- price -->
     <g style="fill: #262626" transform="translate(355.995938 662.149219)scale(0.12 -0.12)">
      <defs>
       <path id="ArialMT-70" d="M 422 -1272 
L 422 3319 
L 934 3319 
L 934 2888 
Q 1116 3141 1344 3267 
Q 1572 3394 1897 3394 
Q 2322 3394 2647 3175 
Q 2972 2956 3137 2557 
Q 3303 2159 3303 1684 
Q 3303 1175 3120 767 
Q 2938 359 2589 142 
Q 2241 -75 1856 -75 
Q 1575 -75 1351 44 
Q 1128 163 984 344 
L 984 -1272 
L 422 -1272 
z
M 931 1641 
Q 931 1000 1190 694 
Q 1450 388 1819 388 
Q 2194 388 2461 705 
Q 2728 1022 2728 1688 
Q 2728 2322 2467 2637 
Q 2206 2953 1844 2953 
Q 1484 2953 1207 2617 
Q 931 2281 931 1641 
z
" transform="scale(0.015625)"/>
       <path id="ArialMT-72" d="M 416 0 
L 416 3319 
L 922 3319 
L 922 2816 
Q 1116 3169 1280 3281 
Q 1444 3394 1641 3394 
Q 1925 3394 2219 3213 
L 2025 2691 
Q 1819 2813 1613 2813 
Q 1428 2813 1281 2702 
Q 1134 2591 1072 2394 
Q 978 2094 978 1738 
L 978 0 
L 416 0 
z
" transform="scale(0.015625)"/>
       <path id="ArialMT-69" d="M 425 3934 
L 425 4581 
L 988 4581 
L 988 3934 
L 425 3934 
z
M 425 0 
L 425 3319 
L 988 3319 
L 988 0 
L 425 0 
z
" transform="scale(0.015625)"/>
       <path id="ArialMT-63" d="M 2588 1216 
L 3141 1144 
Q 3050 572 2676 248 
Q 2303 -75 1759 -75 
Q 1078 -75 664 370 
Q 250 816 250 1647 
Q 250 2184 428 2587 
Q 606 2991 970 3192 
Q 1334 3394 1763 3394 
Q 2303 3394 2647 3120 
Q 2991 2847 3088 2344 
L 2541 2259 
Q 2463 2594 2264 2762 
Q 2066 2931 1784 2931 
Q 1359 2931 1093 2626 
Q 828 2322 828 1663 
Q 828 994 1084 691 
Q 1341 388 1753 388 
Q 2084 388 2306 591 
Q 2528 794 2588 1216 
z
" transform="scale(0.015625)"/>
       <path id="ArialMT-65" d="M 2694 1069 
L 3275 997 
Q 3138 488 2766 206 
Q 2394 -75 1816 -75 
Q 1088 -75 661 373 
Q 234 822 234 1631 
Q 234 2469 665 2931 
Q 1097 3394 1784 3394 
Q 2450 3394 2872 2941 
Q 3294 2488 3294 1666 
Q 3294 1616 3291 1516 
L 816 1516 
Q 847 969 1125 678 
Q 1403 388 1819 388 
Q 2128 388 2347 550 
Q 2566 713 2694 1069 
z
M 847 1978 
L 2700 1978 
Q 2663 2397 2488 2606 
Q 2219 2931 1791 2931 
Q 1403 2931 1139 2672 
Q 875 2413 847 1978 
z
" transform="scale(0.015625)"/>
      </defs>
      <use xlink:href="#ArialMT-70"/>
      <use xlink:href="#ArialMT-72" x="55.615234"/>
      <use xlink:href="#ArialMT-69" x="88.916016"/>
      <use xlink:href="#ArialMT-63" x="111.132812"/>
      <use xlink:href="#ArialMT-65" x="161.132812"/>
     </g>
    </g>
   </g>
   <g id="matplotlib.axis_2">
    <g id="ytick_1">
     <g id="line2d_7">
      <path d="M 90 630 
L 648 630 
" clip-path="url(#p74f88d3367)" style="fill: none; stroke: #ffffff; stroke-linecap: round"/>
     </g>
     <g id="text_8">
      <!-- 0.0 -->
      <g style="fill: #262626" transform="translate(65.21 633.936797)scale(0.11 -0.11)">
       <defs>
        <path id="ArialMT-2e" d="M 581 0 
L 581 641 
L 1222 641 
L 1222 0 
L 581 0 
z
" transform="scale(0.015625)"/>
       </defs>
       <use xlink:href="#ArialMT-30"/>
       <use xlink:href="#ArialMT-2e" x="55.615234"/>
       <use xlink:href="#ArialMT-30" x="83.398438"/>
      </g>
     </g>
    </g>
    <g id="ytick_2">
     <g id="line2d_8">
      <path d="M 90 543.285669 
L 648 543.285669 
" clip-path="url(#p74f88d3367)" style="fill: none; stroke: #ffffff; stroke-linecap: round"/>
     </g>
     <g id="text_9">
      <!-- 0.2 -->
      <g style="fill: #262626" transform="translate(65.21 547.222466)scale(0.11 -0.11)">
       <use xlink:href="#ArialMT-30"/>
       <use xlink:href="#ArialMT-2e" x="55.615234"/>
       <use xlink:href="#ArialMT-32" x="83.398438"/>
      </g>
     </g>
    </g>
    <g id="ytick_3">
     <g id="line2d_9">
      <path d="M 90 456.571338 
L 648 456.571338 
" clip-path="url(#p74f88d3367)" style="fill: none; stroke: #ffffff; stroke-linecap: round"/>
     </g>
     <g id="text_10">
      <!-- 0.4 -->
      <g style="fill: #262626" transform="translate(65.21 460.508135)scale(0.11 -0.11)">
       <use xlink:href="#ArialMT-30"/>
       <use xlink:href="#ArialMT-2e" x="55.615234"/>
       <use xlink:href="#ArialMT-34" x="83.398438"/>
      </g>
     </g>
    </g>
    <g id="ytick_4">
     <g id="line2d_10">
      <path d="M 90 369.857007 
L 648 369.857007 
" clip-path="url(#p74f88d3367)" style="fill: none; stroke: #ffffff; stroke-linecap: round"/>
     </g>
     <g id="text_11">
      <!-- 0.6 -->
      <g style="fill: #262626" transform="translate(65.21 373.793804)scale(0.11 -0.11)">
       <use xlink:href="#ArialMT-30"/>
       <use xlink:href="#ArialMT-2e" x="55.615234"/>
       <use xlink:href="#ArialMT-36" x="83.398438"/>
      </g>
     </g>
    </g>
    <g id="ytick_5">
     <g id="line2d_11">
      <path d="M 90 283.142676 
L 648 283.142676 
" clip-path="url(#p74f88d3367)" style="fill: none; stroke: #ffffff; stroke-linecap: round"/>
     </g>
     <g id="text_12">
      <!-- 0.8 -->
      <g style="fill: #262626" transform="translate(65.21 287.079473)scale(0.11 -0.11)">
       <use xlink:href="#ArialMT-30"/>
       <use xlink:href="#ArialMT-2e" x="55.615234"/>
       <use xlink:href="#ArialMT-38" x="83.398438"/>
      </g>
     </g>
    </g>
    <g id="ytick_6">
     <g id="line2d_12">
      <path d="M 90 196.428345 
L 648 196.428345 
" clip-path="url(#p74f88d3367)" style="fill: none; stroke: #ffffff; stroke-linecap: round"/>
     </g>
     <g id="text_13">
      <!-- 1.0 -->
      <g style="fill: #262626" transform="translate(65.21 200.365142)scale(0.11 -0.11)">
       <defs>
        <path id="ArialMT-31" d="M 2384 0 
L 1822 0 
L 1822 3584 
Q 1619 3391 1289 3197 
Q 959 3003 697 2906 
L 697 3450 
Q 1169 3672 1522 3987 
Q 1875 4303 2022 4600 
L 2384 4600 
L 2384 0 
z
" transform="scale(0.015625)"/>
       </defs>
       <use xlink:href="#ArialMT-31"/>
       <use xlink:href="#ArialMT-2e" x="55.615234"/>
       <use xlink:href="#ArialMT-30" x="83.398438"/>
      </g>
     </g>
    </g>
    <g id="ytick_7">
     <g id="line2d_13">
      <path d="M 90 109.714014 
L 648 109.714014 
" clip-path="url(#p74f88d3367)" style="fill: none; stroke: #ffffff; stroke-linecap: round"/>
     </g>
     <g id="text_14">
      <!-- 1.2 -->
      <g style="fill: #262626" transform="translate(65.21 113.650811)scale(0.11 -0.11)">
       <use xlink:href="#ArialMT-31"/>
       <use xlink:href="#ArialMT-2e" x="55.615234"/>
       <use xlink:href="#ArialMT-32" x="83.398438"/>
      </g>
     </g>
    </g>
    <g id="text_15">
     <!-- Density -->
     <g style="fill: #262626" transform="translate(58.684375 378.20625)rotate(-90)scale(0.12 -0.12)">
      <defs>
       <path id="ArialMT-44" d="M 494 0 
L 494 4581 
L 2072 4581 
Q 2606 4581 2888 4516 
Q 3281 4425 3559 4188 
Q 3922 3881 4101 3404 
Q 4281 2928 4281 2316 
Q 4281 1794 4159 1391 
Q 4038 988 3847 723 
Q 3656 459 3429 307 
Q 3203 156 2883 78 
Q 2563 0 2147 0 
L 494 0 
z
M 1100 541 
L 2078 541 
Q 2531 541 2789 625 
Q 3047 709 3200 863 
Q 3416 1078 3536 1442 
Q 3656 1806 3656 2325 
Q 3656 3044 3420 3430 
Q 3184 3816 2847 3947 
Q 2603 4041 2063 4041 
L 1100 4041 
L 1100 541 
z
" transform="scale(0.015625)"/>
       <path id="ArialMT-6e" d="M 422 0 
L 422 3319 
L 928 3319 
L 928 2847 
Q 1294 3394 1984 3394 
Q 2284 3394 2536 3286 
Q 2788 3178 2913 3003 
Q 3038 2828 3088 2588 
Q 3119 2431 3119 2041 
L 3119 0 
L 2556 0 
L 2556 2019 
Q 2556 2363 2490 2533 
Q 2425 2703 2258 2804 
Q 2091 2906 1866 2906 
Q 1506 2906 1245 2678 
Q 984 2450 984 1813 
L 984 0 
L 422 0 
z
" transform="scale(0.015625)"/>
       <path id="ArialMT-73" d="M 197 991 
L 753 1078 
Q 800 744 1014 566 
Q 1228 388 1613 388 
Q 2000 388 2187 545 
Q 2375 703 2375 916 
Q 2375 1106 2209 1216 
Q 2094 1291 1634 1406 
Q 1016 1563 777 1677 
Q 538 1791 414 1992 
Q 291 2194 291 2438 
Q 291 2659 392 2848 
Q 494 3038 669 3163 
Q 800 3259 1026 3326 
Q 1253 3394 1513 3394 
Q 1903 3394 2198 3281 
Q 2494 3169 2634 2976 
Q 2775 2784 2828 2463 
L 2278 2388 
Q 2241 2644 2061 2787 
Q 1881 2931 1553 2931 
Q 1166 2931 1000 2803 
Q 834 2675 834 2503 
Q 834 2394 903 2306 
Q 972 2216 1119 2156 
Q 1203 2125 1616 2013 
Q 2213 1853 2448 1751 
Q 2684 1650 2818 1456 
Q 2953 1263 2953 975 
Q 2953 694 2789 445 
Q 2625 197 2315 61 
Q 2006 -75 1616 -75 
Q 969 -75 630 194 
Q 291 463 197 991 
z
" transform="scale(0.015625)"/>
       <path id="ArialMT-74" d="M 1650 503 
L 1731 6 
Q 1494 -44 1306 -44 
Q 1000 -44 831 53 
Q 663 150 594 308 
Q 525 466 525 972 
L 525 2881 
L 113 2881 
L 113 3319 
L 525 3319 
L 525 4141 
L 1084 4478 
L 1084 3319 
L 1650 3319 
L 1650 2881 
L 1084 2881 
L 1084 941 
Q 1084 700 1114 631 
Q 1144 563 1211 522 
Q 1278 481 1403 481 
Q 1497 481 1650 503 
z
" transform="scale(0.015625)"/>
       <path id="ArialMT-79" d="M 397 -1278 
L 334 -750 
Q 519 -800 656 -800 
Q 844 -800 956 -737 
Q 1069 -675 1141 -563 
Q 1194 -478 1313 -144 
Q 1328 -97 1363 -6 
L 103 3319 
L 709 3319 
L 1400 1397 
Q 1534 1031 1641 628 
Q 1738 1016 1872 1384 
L 2581 3319 
L 3144 3319 
L 1881 -56 
Q 1678 -603 1566 -809 
Q 1416 -1088 1222 -1217 
Q 1028 -1347 759 -1347 
Q 597 -1347 397 -1278 
z
" transform="scale(0.015625)"/>
      </defs>
      <use xlink:href="#ArialMT-44"/>
      <use xlink:href="#ArialMT-65" x="72.216797"/>
      <use xlink:href="#ArialMT-6e" x="127.832031"/>
      <use xlink:href="#ArialMT-73" x="183.447266"/>
      <use xlink:href="#ArialMT-69" x="233.447266"/>
      <use xlink:href="#ArialMT-74" x="255.664062"/>
      <use xlink:href="#ArialMT-79" x="283.447266"/>
     </g>
    </g>
    <g id="text_16">
     <!-- 1e−6 -->
     <g style="fill: #262626" transform="translate(90 83.4)scale(0.11 -0.11)">
      <use xlink:href="#ArialMT-31"/>
      <use xlink:href="#ArialMT-65" x="55.615234"/>
      <use xlink:href="#ArialMT-2212" x="111.230469"/>
      <use xlink:href="#ArialMT-36" x="169.628906"/>
     </g>
    </g>
   </g>
   <g id="line2d_14">
    <path d="M 115.363636 629.953756 
L 133.207401 629.76498 
L 145.952947 629.398911 
L 156.149383 628.8849 
L 166.34582 628.16249 
L 191.836912 626.185823 
L 199.484239 625.889807 
L 207.131567 625.855874 
L 214.778894 626.089697 
L 222.426222 626.544873 
L 240.269986 627.963329 
L 250.466423 628.645964 
L 258.113751 628.983855 
L 265.761078 629.148788 
L 275.957515 629.109979 
L 286.153952 628.828463 
L 301.448607 628.139134 
L 326.939698 626.758576 
L 337.136135 625.972737 
L 344.783463 625.142529 
L 352.43079 624.029499 
L 360.078118 622.603521 
L 367.725445 620.884802 
L 375.372773 618.940623 
L 390.667428 614.746503 
L 413.609411 608.308139 
L 421.256738 605.886306 
L 426.354957 604.086784 
L 431.453175 602.104519 
L 436.551393 599.927587 
L 441.649612 597.565635 
L 449.296939 593.756075 
L 462.042485 587.271615 
L 467.140704 584.894696 
L 472.238922 582.787308 
L 477.33714 581.038885 
L 479.886249 580.323959 
L 482.435359 579.726573 
L 484.984468 579.254027 
L 487.533577 578.912637 
L 490.082686 578.707742 
L 492.631795 578.64372 
L 495.180905 578.724009 
L 497.730014 578.951114 
L 500.279123 579.3266 
L 502.828232 579.851073 
L 505.377341 580.524135 
L 507.92645 581.344318 
L 510.47556 582.309014 
L 513.024669 583.414385 
L 515.573778 584.655275 
L 520.671996 587.515985 
L 525.770215 590.821313 
L 530.868433 594.47851 
L 538.515761 600.373295 
L 548.712197 608.319719 
L 553.810416 612.046712 
L 558.908634 615.469553 
L 564.006852 618.515313 
L 569.105071 621.141615 
L 574.203289 623.336328 
L 579.301508 625.113927 
L 584.399726 626.50949 
L 589.497944 627.571581 
L 594.596163 628.355204 
L 599.694381 628.915766 
L 607.341709 629.448793 
L 614.989036 629.736706 
L 622.636364 629.881901 
L 622.636364 629.881901 
" clip-path="url(#p74f88d3367)" style="fill: none; stroke: #f668c2; stroke-width: 1.5; stroke-linecap: round"/>
   </g>
   <g id="line2d_15">
    <path d="M 129.823283 629.986192 
L 153.837661 629.842214 
L 170.647727 629.502984 
L 199.464981 628.779772 
L 209.070733 628.78051 
L 221.077922 629.01306 
L 252.296614 629.794126 
L 266.705242 629.862022 
L 278.712431 629.702522 
L 288.318182 629.346292 
L 295.522496 628.868772 
L 302.72681 628.137604 
L 307.529685 627.473592 
L 312.332561 626.644487 
L 317.135437 625.633407 
L 321.938313 624.429297 
L 326.741188 623.029512 
L 331.544064 621.442114 
L 338.748378 618.757133 
L 348.354129 614.811514 
L 360.361319 609.882016 
L 367.565632 607.249396 
L 372.368508 605.715085 
L 377.171384 604.380445 
L 381.97426 603.245286 
L 386.777135 602.291323 
L 393.981449 601.121876 
L 425.200141 596.554006 
L 434.805893 595.148116 
L 442.010206 594.370549 
L 446.813082 594.038029 
L 451.615958 593.86459 
L 458.820272 593.886043 
L 466.024585 594.197187 
L 473.228899 594.749885 
L 480.433212 595.538213 
L 487.637526 596.613713 
L 492.440402 597.536657 
L 497.243278 598.661681 
L 502.046153 600.016358 
L 506.849029 601.617612 
L 511.651905 603.466777 
L 516.454781 605.546567 
L 523.659094 609.013836 
L 542.870597 618.761071 
L 547.673473 620.920849 
L 552.476349 622.851253 
L 557.279224 624.520481 
L 562.0821 625.916025 
L 566.884976 627.043405 
L 571.687852 627.922937 
L 576.490727 628.585255 
L 581.293603 629.066446 
L 588.497917 629.529163 
L 598.103668 629.831804 
L 607.70942 629.947597 
L 607.70942 629.947597 
" clip-path="url(#p74f88d3367)" style="fill: none; stroke: #e866f4; stroke-width: 1.5; stroke-linecap: round"/>
   </g>
   <g id="line2d_16">
    <path d="M 128.040794 629.932576 
L 140.122493 629.749103 
L 149.787852 629.390084 
L 157.036872 628.920259 
L 164.285891 628.238088 
L 171.53491 627.349889 
L 193.281969 624.469108 
L 198.114648 624.104044 
L 202.947328 623.938403 
L 207.780008 623.989725 
L 212.612687 624.252519 
L 217.445367 624.699212 
L 224.694386 625.612839 
L 241.608765 627.937177 
L 248.857784 628.682746 
L 256.106804 629.195939 
L 263.355823 629.485399 
L 270.604842 629.575919 
L 277.853862 629.486839 
L 285.102881 629.22369 
L 292.351901 628.782731 
L 299.60092 628.162745 
L 309.266279 627.081272 
L 318.931638 625.775017 
L 331.013337 623.927503 
L 340.678697 622.248418 
L 347.927716 620.769971 
L 352.760396 619.62112 
L 357.593075 618.300893 
L 362.425755 616.776617 
L 367.258435 615.021524 
L 372.091114 613.017659 
L 376.923794 610.757796 
L 381.756473 608.246038 
L 386.589153 605.496798 
L 391.421833 602.532161 
L 398.670852 597.737764 
L 405.919871 592.597668 
L 413.168891 587.170969 
L 422.83425 579.57986 
L 434.915949 569.945036 
L 439.748629 566.31112 
L 444.581308 562.998229 
L 446.997648 561.510187 
L 449.413988 560.160098 
L 451.830328 558.966101 
L 454.246667 557.944603 
L 456.663007 557.109628 
L 459.079347 556.472248 
L 461.495687 556.040122 
L 463.912027 555.817187 
L 466.328366 555.803523 
L 468.744706 555.995386 
L 471.161046 556.385437 
L 473.577386 556.963132 
L 475.993726 557.715267 
L 478.410065 558.626641 
L 480.826405 559.680798 
L 485.659085 562.150005 
L 490.491764 564.995039 
L 495.324444 568.112787 
L 500.157124 571.437363 
L 507.406143 576.762055 
L 512.238823 580.548411 
L 517.071502 584.543714 
L 521.904182 588.750177 
L 529.153201 595.385406 
L 541.2349 606.608722 
L 546.06758 610.807957 
L 550.90026 614.659307 
L 555.732939 618.07078 
L 560.565619 620.986278 
L 562.981959 622.251227 
L 565.398298 623.388725 
L 570.230978 625.296849 
L 575.063658 626.757294 
L 579.896337 627.834381 
L 584.729017 628.599788 
L 589.561696 629.123892 
L 596.810716 629.592571 
L 606.476075 629.869514 
L 608.892415 629.9039 
L 608.892415 629.9039 
" clip-path="url(#p74f88d3367)" style="fill: none; stroke: #a48cf4; stroke-width: 1.5; stroke-linecap: round"/>
   </g>
   <g id="line2d_17">
    <path d="M 191.681343 629.981918 
L 207.619946 629.841539 
L 217.581573 629.570563 
L 229.535525 629.014004 
L 241.489477 628.479925 
L 249.458778 628.373638 
L 257.42808 628.539608 
L 283.328309 629.454283 
L 289.305285 629.342463 
L 295.282261 628.998487 
L 301.259237 628.384004 
L 307.236213 627.47283 
L 313.213189 626.254325 
L 319.190165 624.726698 
L 325.167141 622.880463 
L 329.151792 621.457371 
L 333.136442 619.861288 
L 337.121093 618.070277 
L 341.105744 616.059694 
L 345.090394 613.804591 
L 349.075045 611.282113 
L 353.059696 608.473933 
L 357.044346 605.369005 
L 361.028997 601.966883 
L 365.013648 598.281333 
L 368.998299 594.343447 
L 374.975275 588.077232 
L 388.921552 573.102092 
L 392.906203 569.096273 
L 396.890853 565.337159 
L 400.875504 561.877358 
L 404.860155 558.76724 
L 408.844805 556.063533 
L 412.829456 553.835817 
L 414.821781 552.92606 
L 416.814107 552.167303 
L 418.806432 551.570952 
L 420.798757 551.148021 
L 422.791083 550.908584 
L 424.783408 550.861223 
L 426.775733 551.012479 
L 428.768059 551.366384 
L 430.760384 551.924063 
L 432.752709 552.68347 
L 434.745035 553.639247 
L 436.73736 554.782718 
L 438.729685 556.10201 
L 440.722011 557.582296 
L 444.706661 560.953808 
L 448.691312 564.733781 
L 462.637589 578.533146 
L 466.62224 581.955495 
L 470.606891 584.935355 
L 474.591541 587.43026 
L 478.576192 589.446688 
L 482.560843 591.035221 
L 486.545494 592.281205 
L 490.530144 593.292905 
L 502.484096 596.106565 
L 506.468747 597.334881 
L 510.453398 598.850439 
L 514.438048 600.70098 
L 518.422699 602.900478 
L 522.40735 605.424572 
L 526.392 608.20981 
L 540.338278 618.437486 
L 544.322928 620.997803 
L 548.307579 623.224179 
L 552.29223 625.075817 
L 556.27688 626.548638 
L 560.261531 627.669072 
L 564.246182 628.484315 
L 568.230832 629.051706 
L 572.215483 629.42946 
L 578.192459 629.75283 
L 586.16176 629.929622 
L 588.154086 629.949881 
L 588.154086 629.949881 
" clip-path="url(#p74f88d3367)" style="fill: none; stroke: #3ba3ec; stroke-width: 1.5; stroke-linecap: round"/>
   </g>
   <g id="line2d_18">
    <path d="M 143.765845 629.983008 
L 161.678367 629.835305 
L 172.873693 629.543966 
L 204.220606 628.470422 
L 213.176867 628.613874 
L 226.611259 629.172456 
L 240.04565 629.666069 
L 251.240976 629.812857 
L 260.197237 629.726386 
L 269.153498 629.422484 
L 278.109759 628.846895 
L 284.826955 628.212969 
L 293.783216 627.102576 
L 302.739477 625.74692 
L 338.564521 619.843498 
L 343.042651 618.907717 
L 347.520782 617.753175 
L 351.998912 616.293548 
L 356.477043 614.448763 
L 360.955173 612.15977 
L 365.433304 609.404386 
L 369.911434 606.211006 
L 374.389565 602.666112 
L 387.823956 591.526671 
L 392.302087 588.279884 
L 394.541152 586.836022 
L 396.780217 585.527219 
L 399.019282 584.358405 
L 401.258348 583.328756 
L 403.497413 582.431589 
L 407.975543 580.979914 
L 412.453674 579.845215 
L 419.17087 578.256936 
L 423.649 576.930201 
L 425.888065 576.108251 
L 428.127131 575.154951 
L 430.366196 574.058013 
L 432.605261 572.811539 
L 434.844326 571.416422 
L 439.322457 568.218079 
L 443.800587 564.602405 
L 452.756848 557.069427 
L 457.234979 553.713579 
L 459.474044 552.255196 
L 461.713109 550.979133 
L 463.952175 549.906256 
L 466.19124 549.051934 
L 468.430305 548.425882 
L 470.66937 548.032308 
L 472.908436 547.870365 
L 475.147501 547.934851 
L 477.386566 548.217124 
L 479.625631 548.706159 
L 481.864697 549.389665 
L 484.103762 550.255179 
L 486.342827 551.291059 
L 488.581892 552.487289 
L 490.820957 553.836057 
L 493.060023 555.332037 
L 495.299088 556.972375 
L 497.538153 558.756391 
L 502.016284 562.759932 
L 506.494414 567.35416 
L 510.972545 572.533142 
L 515.450675 578.245315 
L 519.928806 584.375754 
L 533.363197 603.266175 
L 537.841328 608.938366 
L 540.080393 611.537982 
L 542.319458 613.955887 
L 544.558523 616.179928 
L 546.797589 618.202855 
L 549.036654 620.022201 
L 551.275719 621.639976 
L 553.514784 623.062169 
L 555.75385 624.298152 
L 557.992915 625.359981 
L 560.23198 626.261683 
L 562.471045 627.018547 
L 566.949176 628.16131 
L 571.427306 628.912649 
L 575.905437 629.383881 
L 582.622632 629.757827 
L 589.339828 629.913856 
L 589.339828 629.913856 
" clip-path="url(#p74f88d3367)" style="fill: none; stroke: #38aabf; stroke-width: 1.5; stroke-linecap: round"/>
   </g>
   <g id="line2d_19">
    <path d="M 147.22898 629.945927 
L 157.817711 629.7536 
L 164.170949 629.472657 
L 170.524188 628.990775 
L 176.877426 628.272855 
L 185.348411 627.028712 
L 193.819395 625.808447 
L 198.054888 625.37744 
L 202.29038 625.14617 
L 206.525872 625.143989 
L 210.761365 625.36454 
L 217.114603 626.011543 
L 227.703334 627.261938 
L 231.938827 627.565751 
L 236.174319 627.64569 
L 240.409811 627.4456 
L 244.645304 626.916668 
L 248.880796 626.007521 
L 250.998542 625.390752 
L 253.116288 624.652626 
L 255.234034 623.780984 
L 257.351781 622.761653 
L 259.469527 621.578406 
L 261.587273 620.213065 
L 263.705019 618.645794 
L 265.822765 616.855586 
L 267.940511 614.820952 
L 270.058258 612.520826 
L 272.176004 609.935636 
L 274.29375 607.04853 
L 276.411496 603.846678 
L 278.529242 600.322591 
L 280.646988 596.475369 
L 282.764735 592.311784 
L 284.882481 587.847122 
L 289.117973 578.120969 
L 293.353465 567.599043 
L 301.82445 545.970558 
L 306.059942 535.923956 
L 308.177689 531.323583 
L 310.295435 527.083114 
L 312.413181 523.252933 
L 314.530927 519.875751 
L 316.648673 516.985995 
L 318.766419 514.6095 
L 320.884166 512.763506 
L 323.001912 511.456883 
L 325.119658 510.690562 
L 327.237404 510.458092 
L 329.35515 510.746306 
L 331.472896 511.53603 
L 333.590643 512.802823 
L 335.708389 514.517724 
L 337.826135 516.647972 
L 339.943881 519.15772 
L 342.061627 522.008712 
L 344.179373 525.160927 
L 346.29712 528.573203 
L 350.532612 536.011006 
L 354.768104 543.991214 
L 365.356835 564.32257 
L 369.592327 571.943915 
L 373.82782 578.996644 
L 378.063312 585.373796 
L 382.298804 591.022591 
L 384.416551 593.57013 
L 386.534297 595.935726 
L 388.652043 598.123453 
L 390.769789 600.138521 
L 392.887535 601.986854 
L 395.005281 603.674729 
L 397.123028 605.208499 
L 399.240774 606.594414 
L 401.35852 607.838555 
L 403.476266 608.946876 
L 405.594012 609.925343 
L 409.829505 611.518026 
L 414.064997 612.674069 
L 418.300489 613.467673 
L 422.535982 613.994497 
L 437.360205 615.395393 
L 441.595697 616.057549 
L 447.948936 617.358038 
L 458.537666 619.724503 
L 462.773159 620.453838 
L 467.008651 620.95465 
L 471.244143 621.21881 
L 477.597382 621.271551 
L 488.186113 621.173317 
L 492.421605 621.325417 
L 496.657097 621.667734 
L 500.89259 622.208258 
L 507.245828 623.334288 
L 517.834559 625.61868 
L 524.187798 626.922384 
L 530.541036 628.005192 
L 536.894275 628.81156 
L 543.247513 629.351784 
L 549.600752 629.677538 
L 558.071736 629.890503 
L 568.660467 629.977875 
L 568.660467 629.977875 
" clip-path="url(#p74f88d3367)" style="fill: none; stroke: #36ada4; stroke-width: 1.5; stroke-linecap: round"/>
   </g>
   <g id="line2d_20">
    <path d="M 230.120342 629.981842 
L 246.276224 629.835694 
L 257.046812 629.502454 
L 266.022302 628.97607 
L 274.997791 628.205409 
L 285.768379 627.037466 
L 310.899751 624.161894 
L 319.875241 623.413431 
L 330.645828 622.787843 
L 343.211514 622.063806 
L 348.596808 621.579522 
L 353.982102 620.894608 
L 359.367396 619.93376 
L 362.957592 619.0945 
L 366.547788 618.056831 
L 370.137984 616.78112 
L 373.72818 615.225388 
L 377.318376 613.350845 
L 380.908572 611.130107 
L 384.498768 608.557115 
L 388.088963 605.656953 
L 391.679159 602.493128 
L 402.449747 592.628347 
L 406.039943 589.741713 
L 409.630139 587.316441 
L 411.425237 586.312612 
L 413.220335 585.460034 
L 415.015433 584.762463 
L 416.810531 584.219042 
L 418.605629 583.824162 
L 420.400727 583.567485 
L 423.990923 583.404993 
L 427.581119 583.565014 
L 432.966413 583.930122 
L 436.556609 583.903606 
L 438.351707 583.720937 
L 440.146805 583.390493 
L 441.941903 582.890101 
L 443.737001 582.201548 
L 445.532098 581.311151 
L 447.327196 580.210199 
L 449.122294 578.895273 
L 450.917392 577.368437 
L 452.71249 575.63727 
L 454.507588 573.714766 
L 458.097784 569.373109 
L 461.68798 564.542544 
L 470.66347 552.079522 
L 474.253666 547.700077 
L 476.048764 545.775851 
L 477.843862 544.066481 
L 479.63896 542.596005 
L 481.434058 541.384619 
L 483.229156 540.448521 
L 485.024254 539.79987 
L 486.819352 539.446841 
L 488.61445 539.393774 
L 490.409548 539.641383 
L 492.204646 540.18702 
L 493.999744 541.024971 
L 495.794842 542.146768 
L 497.58994 543.541497 
L 499.385038 545.196107 
L 501.180136 547.095695 
L 502.975233 549.22377 
L 504.770331 551.562495 
L 508.360527 556.795076 
L 511.950723 562.631491 
L 515.540919 568.900187 
L 529.901703 594.816732 
L 533.491899 600.702418 
L 537.082095 606.09066 
L 540.672291 610.898831 
L 544.262487 615.077872 
L 546.057585 616.925511 
L 547.852683 618.612833 
L 549.647781 620.142906 
L 551.442879 621.520483 
L 553.237977 622.751786 
L 555.033075 623.84428 
L 558.623271 625.647396 
L 562.213466 627.004821 
L 565.803662 627.995663 
L 569.393858 628.696551 
L 572.984054 629.176769 
L 578.369348 629.609308 
L 585.54974 629.87006 
L 587.344838 629.903225 
L 587.344838 629.903225 
" clip-path="url(#p74f88d3367)" style="fill: none; stroke: #34af84; stroke-width: 1.5; stroke-linecap: round"/>
   </g>
   <g id="line2d_21">
    <path d="M 157.763791 629.977889 
L 170.220607 629.821342 
L 178.525151 629.497763 
L 186.829695 628.940757 
L 197.210375 628.200564 
L 203.438783 627.998456 
L 209.667191 628.078405 
L 224.200143 628.529127 
L 228.352415 628.330092 
L 232.504686 627.805551 
L 236.656958 626.876636 
L 240.80923 625.497286 
L 244.961502 623.67375 
L 249.113774 621.482745 
L 259.494454 615.541127 
L 263.646726 613.546302 
L 267.798998 611.991793 
L 271.95127 610.830456 
L 278.179678 609.219436 
L 280.255814 608.480022 
L 282.33195 607.512634 
L 284.408086 606.232979 
L 286.484222 604.55566 
L 288.560358 602.397536 
L 290.636494 599.681119 
L 292.71263 596.337912 
L 294.788766 592.311663 
L 296.864902 587.561519 
L 298.941038 582.065079 
L 301.017174 575.821313 
L 303.09331 568.853273 
L 305.169446 561.210434 
L 307.245582 552.970403 
L 311.397854 535.153069 
L 317.626262 507.4694 
L 319.702398 498.752874 
L 321.778534 490.631217 
L 323.85467 483.294953 
L 325.930806 476.911337 
L 328.006942 471.614912 
L 330.083078 467.500038 
L 332.159214 464.616218 
L 334.23535 462.966708 
L 336.311486 462.51061 
L 338.387622 463.168179 
L 340.463758 464.828766 
L 342.539894 467.360503 
L 344.61603 470.620666 
L 346.692166 474.46564 
L 348.768302 478.759527 
L 352.920574 488.225611 
L 361.225118 508.432506 
L 367.453526 523.328204 
L 371.605798 532.746887 
L 375.75807 541.537537 
L 379.910342 549.55287 
L 384.062614 556.752446 
L 388.214886 563.238731 
L 392.367158 569.228163 
L 400.671701 580.619604 
L 406.900109 588.979458 
L 411.052381 594.282605 
L 415.204653 599.148023 
L 419.356925 603.426757 
L 421.433061 605.32568 
L 423.509197 607.067246 
L 427.661469 610.123243 
L 431.813741 612.72273 
L 435.966013 615.016044 
L 442.194421 618.127667 
L 446.346693 620.032684 
L 450.498965 621.742771 
L 454.651237 623.149726 
L 456.727373 623.703001 
L 458.803509 624.14021 
L 460.879645 624.454041 
L 462.955781 624.642155 
L 465.031917 624.707831 
L 469.184189 624.513796 
L 473.336461 624.006774 
L 481.641005 622.834181 
L 485.793277 622.535567 
L 489.945549 622.56965 
L 494.097821 622.932528 
L 498.250093 623.544655 
L 512.783045 626.005148 
L 519.011453 626.734659 
L 541.848949 628.888136 
L 550.153493 629.487793 
L 558.458036 629.8199 
L 568.838716 629.967152 
L 570.914852 629.977842 
L 570.914852 629.977842 
" clip-path="url(#p74f88d3367)" style="fill: none; stroke: #50b131; stroke-width: 1.5; stroke-linecap: round"/>
   </g>
   <g id="line2d_22">
    <path d="M 156.316857 629.742683 
L 160.58967 629.446007 
L 164.862483 628.889667 
L 166.99889 628.469722 
L 169.135297 627.928352 
L 171.271704 627.245199 
L 173.40811 626.401733 
L 175.544517 625.383366 
L 177.680924 624.181825 
L 179.81733 622.797589 
L 181.953737 621.24211 
L 186.22655 617.727356 
L 192.635771 612.195919 
L 194.772177 610.552169 
L 196.908584 609.131891 
L 199.044991 608.002627 
L 201.181397 607.219796 
L 203.317804 606.821879 
L 205.454211 606.826861 
L 207.590618 607.230364 
L 209.727024 608.0057 
L 211.863431 609.105805 
L 213.999838 610.466857 
L 218.272651 613.662351 
L 222.545465 616.94184 
L 224.681871 618.422606 
L 226.818278 619.714326 
L 228.954685 620.769969 
L 231.091091 621.555066 
L 233.227498 622.046626 
L 235.363905 622.231196 
L 237.500312 622.102426 
L 239.636718 621.658493 
L 241.773125 620.899717 
L 243.909532 619.826644 
L 246.045938 618.438769 
L 248.182345 616.733999 
L 250.318752 614.70884 
L 252.455159 612.359196 
L 254.591565 609.681601 
L 256.727972 606.674629 
L 258.864379 603.340208 
L 261.000785 599.684561 
L 263.137192 595.718565 
L 265.273599 591.457385 
L 269.546412 582.124377 
L 273.819226 571.837455 
L 278.092039 560.706555 
L 282.364852 548.756065 
L 286.637666 535.934702 
L 290.910479 522.184448 
L 295.183293 507.538354 
L 301.592513 484.376466 
L 308.001733 461.030521 
L 312.274546 446.123501 
L 316.54736 432.045995 
L 322.95658 412.1258 
L 327.229393 398.752738 
L 329.3658 391.691857 
L 331.502207 384.20847 
L 333.638614 376.181014 
L 335.77502 367.506895 
L 337.911427 358.112512 
L 340.047834 347.961938 
L 342.18424 337.063381 
L 346.457054 313.293169 
L 352.866274 274.865273 
L 357.139087 249.750474 
L 359.275494 237.988484 
L 361.411901 227.000168 
L 363.548307 216.92048 
L 365.684714 207.836392 
L 367.821121 199.783081 
L 369.957528 192.744242 
L 372.093934 186.656352 
L 374.230341 181.416321 
L 376.366748 176.891636 
L 378.503154 172.931922 
L 380.639561 169.380774 
L 384.912375 162.912968 
L 389.185188 156.490273 
L 393.458001 149.517139 
L 397.730815 141.852788 
L 406.276442 125.884217 
L 408.412848 122.27309 
L 410.549255 119.042006 
L 412.685662 116.313886 
L 414.822069 114.208082 
L 416.958475 112.834048 
L 419.094882 112.285057 
L 421.231289 112.632544 
L 423.367695 113.921691 
L 425.504102 116.168712 
L 427.640509 119.360108 
L 429.776916 123.453868 
L 431.913322 128.38238 
L 434.049729 134.056601 
L 436.186136 140.370995 
L 438.322542 147.208761 
L 442.595356 161.961563 
L 451.140983 192.505946 
L 455.413796 206.836225 
L 459.686609 220.051527 
L 463.959423 232.212489 
L 468.232236 243.646911 
L 478.91427 271.723503 
L 487.459897 295.094227 
L 498.14193 324.188169 
L 502.414744 335.878646 
L 506.687557 348.282211 
L 508.823964 355.011409 
L 510.960371 362.255496 
L 513.096777 370.140382 
L 515.233184 378.783773 
L 517.369591 388.28475 
L 519.505997 398.713233 
L 521.642404 410.100332 
L 523.778811 422.430728 
L 525.915217 435.638076 
L 530.188031 464.16252 
L 538.733658 523.805313 
L 540.870064 537.829746 
L 543.006471 551.041351 
L 545.142878 563.265883 
L 547.279285 574.374827 
L 549.415691 584.28884 
L 551.552098 592.977362 
L 553.688505 600.4548 
L 555.824911 606.774071 
L 557.961318 612.018383 
L 560.097725 616.292242 
L 562.234132 619.712564 
L 564.370538 622.400592 
L 566.506945 624.47516 
L 568.643352 626.047529 
L 570.779758 627.217893 
L 572.916165 628.073421 
L 575.052572 628.687606 
L 577.188979 629.120642 
L 581.461792 629.624423 
L 581.461792 629.624423 
" clip-path="url(#p74f88d3367)" style="fill: none; stroke: #97a431; stroke-width: 1.5; stroke-linecap: round"/>
   </g>
   <g id="line2d_23">
    <path d="M 147.446529 629.963813 
L 160.658229 629.769745 
L 169.466028 629.396802 
L 176.071877 628.922299 
L 184.879677 628.065579 
L 195.889426 627.02363 
L 202.495276 626.697181 
L 209.101125 626.69336 
L 226.716724 627.101504 
L 231.120624 626.826017 
L 235.524523 626.21837 
L 239.928423 625.213205 
L 244.332323 623.767465 
L 248.736222 621.861192 
L 253.140122 619.496247 
L 257.544022 616.692882 
L 261.947921 613.483895 
L 266.351821 609.906429 
L 270.755721 605.992317 
L 275.159621 601.758799 
L 279.56352 597.202048 
L 283.96742 592.295873 
L 288.37132 586.996937 
L 292.775219 581.255877 
L 297.179119 575.03129 
L 301.583019 568.301666 
L 305.986918 561.070412 
L 310.390818 553.361939 
L 314.794718 545.211696 
L 319.198617 536.657755 
L 325.804467 523.169168 
L 341.218116 490.839912 
L 343.420066 486.632271 
L 345.622016 482.69484 
L 347.823965 479.097017 
L 350.025915 475.909545 
L 352.227865 473.201722 
L 354.429815 471.03833 
L 356.631765 469.476404 
L 358.833715 468.562047 
L 361.035665 468.327435 
L 363.237614 468.788244 
L 365.439564 469.941659 
L 367.641514 471.76516 
L 369.843464 474.216227 
L 372.045414 477.233071 
L 374.247364 480.736425 
L 376.449313 484.632376 
L 380.853213 493.17652 
L 387.459063 506.216526 
L 389.661013 510.221452 
L 391.862962 513.926712 
L 394.064912 517.283319 
L 396.266862 520.263826 
L 398.468812 522.862527 
L 400.670762 525.094331 
L 402.872712 526.99244 
L 405.074661 528.604994 
L 407.276611 529.990976 
L 411.680511 532.345921 
L 416.084411 534.572676 
L 420.48831 537.084041 
L 422.69026 538.525141 
L 427.09416 541.818108 
L 431.49806 545.570601 
L 442.507809 555.393133 
L 446.911709 558.862073 
L 451.315608 561.882 
L 455.719508 564.497439 
L 468.931207 571.667043 
L 473.335107 574.527861 
L 477.739006 577.872766 
L 482.142906 581.728037 
L 486.546806 586.026724 
L 493.152655 592.976909 
L 499.758505 599.946518 
L 504.162405 604.300701 
L 508.566304 608.276326 
L 512.970204 611.818639 
L 517.374104 614.927179 
L 521.778003 617.636404 
L 526.181903 619.993363 
L 530.585803 622.040187 
L 534.989702 623.805669 
L 539.393602 625.305929 
L 543.797502 626.550781 
L 548.201401 627.551404 
L 552.605301 628.325725 
L 557.009201 628.900005 
L 563.61505 629.458746 
L 570.2209 629.758849 
L 579.028699 629.930143 
L 585.634549 629.975649 
L 585.634549 629.975649 
" clip-path="url(#p74f88d3367)" style="fill: none; stroke: #bb9832; stroke-width: 1.5; stroke-linecap: round"/>
   </g>
   <g id="line2d_24">
    <path d="M 239.951555 629.979661 
L 253.788351 629.827774 
L 262.436349 629.519518 
L 269.354748 629.060195 
L 276.273146 628.343504 
L 281.461945 627.576153 
L 284.921144 626.909023 
L 288.380343 626.069368 
L 291.839542 625.000176 
L 295.298741 623.632036 
L 298.757941 621.887701 
L 302.21714 619.688987 
L 303.946739 618.396569 
L 305.676339 616.965016 
L 309.135538 613.660692 
L 312.594737 609.744668 
L 316.053937 605.216532 
L 319.513136 600.113274 
L 322.972335 594.514796 
L 328.161134 585.477465 
L 335.079532 573.233192 
L 338.538731 567.535062 
L 341.99793 562.410193 
L 343.72753 560.116007 
L 345.45713 558.020088 
L 347.186729 556.130249 
L 348.916329 554.448518 
L 350.645928 552.971213 
L 352.375528 551.689352 
L 354.105127 550.589417 
L 355.834727 549.654413 
L 357.564327 548.865184 
L 361.023526 547.645413 
L 364.482725 546.789554 
L 367.941924 546.211916 
L 371.401123 545.907824 
L 374.860322 545.955821 
L 376.589922 546.154097 
L 378.319522 546.495472 
L 380.049121 547.000377 
L 381.778721 547.687667 
L 383.50832 548.57326 
L 385.23792 549.668961 
L 386.96752 550.981546 
L 388.697119 552.512136 
L 390.426719 554.255886 
L 392.156318 556.201982 
L 395.615518 560.630051 
L 399.074717 565.606953 
L 409.452314 581.287244 
L 412.911513 585.921456 
L 416.370713 589.941515 
L 418.100312 591.691206 
L 419.829912 593.261571 
L 421.559511 594.654673 
L 423.289111 595.877398 
L 425.018711 596.94102 
L 428.47791 598.654425 
L 431.937109 599.948131 
L 437.125908 601.48808 
L 442.314706 603.03909 
L 445.773906 604.281131 
L 449.233105 605.762143 
L 452.692304 607.490246 
L 456.151503 609.433621 
L 461.340302 612.6162 
L 469.9883 617.985817 
L 473.447499 619.940162 
L 476.906698 621.694957 
L 480.365897 623.208941 
L 483.825096 624.454793 
L 487.284296 625.419262 
L 490.743495 626.103203 
L 494.202694 626.52131 
L 497.661893 626.701273 
L 501.121092 626.6821 
L 506.309891 626.386132 
L 520.146688 625.303445 
L 525.335487 625.22536 
L 530.524285 625.451566 
L 535.713084 625.962145 
L 542.631482 626.933932 
L 553.00908 628.442775 
L 559.927478 629.175784 
L 566.845877 629.625464 
L 575.493875 629.887737 
L 584.141872 629.973714 
L 584.141872 629.973714 
" clip-path="url(#p74f88d3367)" style="fill: none; stroke: #e68332; stroke-width: 1.5; stroke-linecap: round"/>
   </g>
   <g id="line2d_25">
    <path d="M 152.728501 629.980051 
L 167.728163 629.812653 
L 176.299398 629.521588 
L 187.013441 628.90989 
L 197.727485 628.297941 
L 204.155911 628.117203 
L 212.727146 628.121384 
L 221.298381 628.115869 
L 225.583999 627.95528 
L 229.869616 627.606773 
L 234.155234 627.016888 
L 238.440851 626.135829 
L 242.726469 624.909258 
L 247.012086 623.269118 
L 249.154895 622.267267 
L 251.297704 621.127262 
L 253.440512 619.834791 
L 255.583321 618.374505 
L 257.72613 616.730322 
L 259.868939 614.885796 
L 262.011747 612.824567 
L 264.154556 610.530866 
L 266.297365 607.990087 
L 268.440173 605.189435 
L 270.582982 602.118632 
L 272.725791 598.770694 
L 274.8686 595.142763 
L 277.011408 591.236961 
L 279.154217 587.061229 
L 283.439835 577.965266 
L 287.725452 568.059568 
L 300.582305 537.222608 
L 302.725113 532.545378 
L 304.867922 528.162891 
L 307.010731 524.126903 
L 309.15354 520.480954 
L 311.296348 517.258825 
L 313.439157 514.483462 
L 315.581966 512.166456 
L 317.724775 510.308092 
L 319.867583 508.897988 
L 322.010392 507.916268 
L 324.153201 507.335196 
L 326.29601 507.12116 
L 328.438818 507.23688 
L 330.581627 507.64368 
L 332.724436 508.303699 
L 334.867244 509.181889 
L 337.010053 510.247698 
L 339.152862 511.476338 
L 341.295671 512.849589 
L 345.581288 515.991255 
L 349.866906 519.65817 
L 352.009714 521.706532 
L 354.152523 523.913736 
L 356.295332 526.292298 
L 358.438141 528.853262 
L 360.580949 531.604504 
L 362.723758 534.549215 
L 367.009376 541.001586 
L 371.294993 548.107304 
L 377.723419 559.515941 
L 384.151846 570.958036 
L 388.437463 578.144954 
L 392.723081 584.76055 
L 397.008698 590.724604 
L 401.294315 596.031424 
L 405.579933 600.707197 
L 409.86555 604.767962 
L 412.008359 606.564204 
L 414.151168 608.198814 
L 416.293977 609.666718 
L 418.436785 610.963571 
L 420.579594 612.087119 
L 422.722403 613.038465 
L 424.865212 613.823048 
L 427.00802 614.451225 
L 429.150829 614.938332 
L 433.436447 615.572304 
L 437.722064 615.918139 
L 446.293299 616.515037 
L 450.578917 617.018055 
L 454.864534 617.698483 
L 461.29296 618.947094 
L 484.863856 623.735694 
L 491.292283 624.848243 
L 495.5779 625.436316 
L 499.863518 625.86594 
L 506.291944 626.226494 
L 525.577222 626.828775 
L 532.005649 627.340333 
L 553.433736 629.32558 
L 562.004971 629.733268 
L 572.719015 629.939588 
L 579.147441 629.97926 
L 579.147441 629.97926 
" clip-path="url(#p74f88d3367)" style="fill: none; stroke: #f77189; stroke-width: 1.5; stroke-linecap: round"/>
   </g>
   <g id="patch_3">
    <path d="M 90 630 
L 90 86.4 
" style="fill: none; stroke: #ffffff; stroke-width: 1.25; stroke-linejoin: miter; stroke-linecap: square"/>
   </g>
   <g id="patch_4">
    <path d="M 648 630 
L 648 86.4 
" style="fill: none; stroke: #ffffff; stroke-width: 1.25; stroke-linejoin: miter; stroke-linecap: square"/>
   </g>
   <g id="patch_5">
    <path d="M 90 630 
L 648 630 
" style="fill: none; stroke: #ffffff; stroke-width: 1.25; stroke-linejoin: miter; stroke-linecap: square"/>
   </g>
   <g id="patch_6">
    <path d="M 90 86.4 
L 648 86.4 
" style="fill: none; stroke: #ffffff; stroke-width: 1.25; stroke-linejoin: miter; stroke-linecap: square"/>
   </g>
   <g id="legend_1">
    <g id="patch_7">
     <path d="M 543.163125 298.662031 
L 640.3 298.662031 
Q 642.5 298.662031 642.5 296.462031 
L 642.5 94.1 
Q 642.5 91.9 640.3 91.9 
L 543.163125 91.9 
Q 540.963125 91.9 540.963125 94.1 
L 540.963125 296.462031 
Q 540.963125 298.662031 543.163125 298.662031 
z
" style="fill: #ffffff; opacity: 0.8; stroke: #cccccc; stroke-linejoin: miter"/>
    </g>
    <g id="text_17">
     <!-- city -->
     <g style="fill: #262626" transform="translate(582.731562 104.889375)scale(0.12 -0.12)">
      <use xlink:href="#ArialMT-63"/>
      <use xlink:href="#ArialMT-69" x="50"/>
      <use xlink:href="#ArialMT-74" x="72.216797"/>
      <use xlink:href="#ArialMT-79" x="100"/>
     </g>
    </g>
    <g id="line2d_26">
     <path d="M 545.363125 116.938594 
L 556.363125 116.938594 
L 567.363125 116.938594 
" style="fill: none; stroke: #f77189; stroke-width: 1.5; stroke-linecap: round"/>
    </g>
    <g id="text_18">
     <!-- Auburn -->
     <g style="fill: #262626" transform="translate(576.163125 120.788594)scale(0.11 -0.11)">
      <defs>
       <path id="ArialMT-41" d="M -9 0 
L 1750 4581 
L 2403 4581 
L 4278 0 
L 3588 0 
L 3053 1388 
L 1138 1388 
L 634 0 
L -9 0 
z
M 1313 1881 
L 2866 1881 
L 2388 3150 
Q 2169 3728 2063 4100 
Q 1975 3659 1816 3225 
L 1313 1881 
z
" transform="scale(0.015625)"/>
       <path id="ArialMT-75" d="M 2597 0 
L 2597 488 
Q 2209 -75 1544 -75 
Q 1250 -75 995 37 
Q 741 150 617 320 
Q 494 491 444 738 
Q 409 903 409 1263 
L 409 3319 
L 972 3319 
L 972 1478 
Q 972 1038 1006 884 
Q 1059 663 1231 536 
Q 1403 409 1656 409 
Q 1909 409 2131 539 
Q 2353 669 2445 892 
Q 2538 1116 2538 1541 
L 2538 3319 
L 3100 3319 
L 3100 0 
L 2597 0 
z
" transform="scale(0.015625)"/>
       <path id="ArialMT-62" d="M 941 0 
L 419 0 
L 419 4581 
L 981 4581 
L 981 2947 
Q 1338 3394 1891 3394 
Q 2197 3394 2470 3270 
Q 2744 3147 2920 2923 
Q 3097 2700 3197 2384 
Q 3297 2069 3297 1709 
Q 3297 856 2875 390 
Q 2453 -75 1863 -75 
Q 1275 -75 941 416 
L 941 0 
z
M 934 1684 
Q 934 1088 1097 822 
Q 1363 388 1816 388 
Q 2184 388 2453 708 
Q 2722 1028 2722 1663 
Q 2722 2313 2464 2622 
Q 2206 2931 1841 2931 
Q 1472 2931 1203 2611 
Q 934 2291 934 1684 
z
" transform="scale(0.015625)"/>
      </defs>
      <use xlink:href="#ArialMT-41"/>
      <use xlink:href="#ArialMT-75" x="66.699219"/>
      <use xlink:href="#ArialMT-62" x="122.314453"/>
      <use xlink:href="#ArialMT-75" x="177.929688"/>
      <use xlink:href="#ArialMT-72" x="233.544922"/>
      <use xlink:href="#ArialMT-6e" x="266.845703"/>
     </g>
    </g>
    <g id="line2d_27">
     <path d="M 545.363125 132.498438 
L 556.363125 132.498438 
L 567.363125 132.498438 
" style="fill: none; stroke: #e68332; stroke-width: 1.5; stroke-linecap: round"/>
    </g>
    <g id="text_19">
     <!-- Shoreline -->
     <g style="fill: #262626" transform="translate(576.163125 136.348438)scale(0.11 -0.11)">
      <defs>
       <path id="ArialMT-53" d="M 288 1472 
L 859 1522 
Q 900 1178 1048 958 
Q 1197 738 1509 602 
Q 1822 466 2213 466 
Q 2559 466 2825 569 
Q 3091 672 3220 851 
Q 3350 1031 3350 1244 
Q 3350 1459 3225 1620 
Q 3100 1781 2813 1891 
Q 2628 1963 1997 2114 
Q 1366 2266 1113 2400 
Q 784 2572 623 2826 
Q 463 3081 463 3397 
Q 463 3744 659 4045 
Q 856 4347 1234 4503 
Q 1613 4659 2075 4659 
Q 2584 4659 2973 4495 
Q 3363 4331 3572 4012 
Q 3781 3694 3797 3291 
L 3216 3247 
Q 3169 3681 2898 3903 
Q 2628 4125 2100 4125 
Q 1550 4125 1298 3923 
Q 1047 3722 1047 3438 
Q 1047 3191 1225 3031 
Q 1400 2872 2139 2705 
Q 2878 2538 3153 2413 
Q 3553 2228 3743 1945 
Q 3934 1663 3934 1294 
Q 3934 928 3725 604 
Q 3516 281 3123 101 
Q 2731 -78 2241 -78 
Q 1619 -78 1198 103 
Q 778 284 539 648 
Q 300 1013 288 1472 
z
" transform="scale(0.015625)"/>
       <path id="ArialMT-68" d="M 422 0 
L 422 4581 
L 984 4581 
L 984 2938 
Q 1378 3394 1978 3394 
Q 2347 3394 2619 3248 
Q 2891 3103 3008 2847 
Q 3125 2591 3125 2103 
L 3125 0 
L 2563 0 
L 2563 2103 
Q 2563 2525 2380 2717 
Q 2197 2909 1863 2909 
Q 1613 2909 1392 2779 
Q 1172 2650 1078 2428 
Q 984 2206 984 1816 
L 984 0 
L 422 0 
z
" transform="scale(0.015625)"/>
       <path id="ArialMT-6f" d="M 213 1659 
Q 213 2581 725 3025 
Q 1153 3394 1769 3394 
Q 2453 3394 2887 2945 
Q 3322 2497 3322 1706 
Q 3322 1066 3130 698 
Q 2938 331 2570 128 
Q 2203 -75 1769 -75 
Q 1072 -75 642 372 
Q 213 819 213 1659 
z
M 791 1659 
Q 791 1022 1069 705 
Q 1347 388 1769 388 
Q 2188 388 2466 706 
Q 2744 1025 2744 1678 
Q 2744 2294 2464 2611 
Q 2184 2928 1769 2928 
Q 1347 2928 1069 2612 
Q 791 2297 791 1659 
z
" transform="scale(0.015625)"/>
       <path id="ArialMT-6c" d="M 409 0 
L 409 4581 
L 972 4581 
L 972 0 
L 409 0 
z
" transform="scale(0.015625)"/>
      </defs>
      <use xlink:href="#ArialMT-53"/>
      <use xlink:href="#ArialMT-68" x="66.699219"/>
      <use xlink:href="#ArialMT-6f" x="122.314453"/>
      <use xlink:href="#ArialMT-72" x="177.929688"/>
      <use xlink:href="#ArialMT-65" x="211.230469"/>
      <use xlink:href="#ArialMT-6c" x="266.845703"/>
      <use xlink:href="#ArialMT-69" x="289.0625"/>
      <use xlink:href="#ArialMT-6e" x="311.279297"/>
      <use xlink:href="#ArialMT-65" x="366.894531"/>
     </g>
    </g>
    <g id="line2d_28">
     <path d="M 545.363125 148.058281 
L 556.363125 148.058281 
L 567.363125 148.058281 
" style="fill: none; stroke: #bb9832; stroke-width: 1.5; stroke-linecap: round"/>
    </g>
    <g id="text_20">
     <!-- Renton -->
     <g style="fill: #262626" transform="translate(576.163125 151.908281)scale(0.11 -0.11)">
      <defs>
       <path id="ArialMT-52" d="M 503 0 
L 503 4581 
L 2534 4581 
Q 3147 4581 3465 4457 
Q 3784 4334 3975 4021 
Q 4166 3709 4166 3331 
Q 4166 2844 3850 2509 
Q 3534 2175 2875 2084 
Q 3116 1969 3241 1856 
Q 3506 1613 3744 1247 
L 4541 0 
L 3778 0 
L 3172 953 
Q 2906 1366 2734 1584 
Q 2563 1803 2427 1890 
Q 2291 1978 2150 2013 
Q 2047 2034 1813 2034 
L 1109 2034 
L 1109 0 
L 503 0 
z
M 1109 2559 
L 2413 2559 
Q 2828 2559 3062 2645 
Q 3297 2731 3419 2920 
Q 3541 3109 3541 3331 
Q 3541 3656 3305 3865 
Q 3069 4075 2559 4075 
L 1109 4075 
L 1109 2559 
z
" transform="scale(0.015625)"/>
      </defs>
      <use xlink:href="#ArialMT-52"/>
      <use xlink:href="#ArialMT-65" x="72.216797"/>
      <use xlink:href="#ArialMT-6e" x="127.832031"/>
      <use xlink:href="#ArialMT-74" x="183.447266"/>
      <use xlink:href="#ArialMT-6f" x="211.230469"/>
      <use xlink:href="#ArialMT-6e" x="266.845703"/>
     </g>
    </g>
    <g id="line2d_29">
     <path d="M 545.363125 163.618125 
L 556.363125 163.618125 
L 567.363125 163.618125 
" style="fill: none; stroke: #97a431; stroke-width: 1.5; stroke-linecap: round"/>
    </g>
    <g id="text_21">
     <!-- Seattle -->
     <g style="fill: #262626" transform="translate(576.163125 167.468125)scale(0.11 -0.11)">
      <defs>
       <path id="ArialMT-61" d="M 2588 409 
Q 2275 144 1986 34 
Q 1697 -75 1366 -75 
Q 819 -75 525 192 
Q 231 459 231 875 
Q 231 1119 342 1320 
Q 453 1522 633 1644 
Q 813 1766 1038 1828 
Q 1203 1872 1538 1913 
Q 2219 1994 2541 2106 
Q 2544 2222 2544 2253 
Q 2544 2597 2384 2738 
Q 2169 2928 1744 2928 
Q 1347 2928 1158 2789 
Q 969 2650 878 2297 
L 328 2372 
Q 403 2725 575 2942 
Q 747 3159 1072 3276 
Q 1397 3394 1825 3394 
Q 2250 3394 2515 3294 
Q 2781 3194 2906 3042 
Q 3031 2891 3081 2659 
Q 3109 2516 3109 2141 
L 3109 1391 
Q 3109 606 3145 398 
Q 3181 191 3288 0 
L 2700 0 
Q 2613 175 2588 409 
z
M 2541 1666 
Q 2234 1541 1622 1453 
Q 1275 1403 1131 1340 
Q 988 1278 909 1158 
Q 831 1038 831 891 
Q 831 666 1001 516 
Q 1172 366 1500 366 
Q 1825 366 2078 508 
Q 2331 650 2450 897 
Q 2541 1088 2541 1459 
L 2541 1666 
z
" transform="scale(0.015625)"/>
      </defs>
      <use xlink:href="#ArialMT-53"/>
      <use xlink:href="#ArialMT-65" x="66.699219"/>
      <use xlink:href="#ArialMT-61" x="122.314453"/>
      <use xlink:href="#ArialMT-74" x="177.929688"/>
      <use xlink:href="#ArialMT-74" x="205.712891"/>
      <use xlink:href="#ArialMT-6c" x="233.496094"/>
      <use xlink:href="#ArialMT-65" x="255.712891"/>
     </g>
    </g>
    <g id="line2d_30">
     <path d="M 545.363125 179.177969 
L 556.363125 179.177969 
L 567.363125 179.177969 
" style="fill: none; stroke: #50b131; stroke-width: 1.5; stroke-linecap: round"/>
    </g>
    <g id="text_22">
     <!-- Kent -->
     <g style="fill: #262626" transform="translate(576.163125 183.027969)scale(0.11 -0.11)">
      <defs>
       <path id="ArialMT-4b" d="M 469 0 
L 469 4581 
L 1075 4581 
L 1075 2309 
L 3350 4581 
L 4172 4581 
L 2250 2725 
L 4256 0 
L 3456 0 
L 1825 2319 
L 1075 1588 
L 1075 0 
L 469 0 
z
" transform="scale(0.015625)"/>
      </defs>
      <use xlink:href="#ArialMT-4b"/>
      <use xlink:href="#ArialMT-65" x="66.699219"/>
      <use xlink:href="#ArialMT-6e" x="122.314453"/>
      <use xlink:href="#ArialMT-74" x="177.929688"/>
     </g>
    </g>
    <g id="line2d_31">
     <path d="M 545.363125 194.737813 
L 556.363125 194.737813 
L 567.363125 194.737813 
" style="fill: none; stroke: #34af84; stroke-width: 1.5; stroke-linecap: round"/>
    </g>
    <g id="text_23">
     <!-- Redmond -->
     <g style="fill: #262626" transform="translate(576.163125 198.587813)scale(0.11 -0.11)">
      <defs>
       <path id="ArialMT-64" d="M 2575 0 
L 2575 419 
Q 2259 -75 1647 -75 
Q 1250 -75 917 144 
Q 584 363 401 755 
Q 219 1147 219 1656 
Q 219 2153 384 2558 
Q 550 2963 881 3178 
Q 1213 3394 1622 3394 
Q 1922 3394 2156 3267 
Q 2391 3141 2538 2938 
L 2538 4581 
L 3097 4581 
L 3097 0 
L 2575 0 
z
M 797 1656 
Q 797 1019 1065 703 
Q 1334 388 1700 388 
Q 2069 388 2326 689 
Q 2584 991 2584 1609 
Q 2584 2291 2321 2609 
Q 2059 2928 1675 2928 
Q 1300 2928 1048 2622 
Q 797 2316 797 1656 
z
" transform="scale(0.015625)"/>
       <path id="ArialMT-6d" d="M 422 0 
L 422 3319 
L 925 3319 
L 925 2853 
Q 1081 3097 1340 3245 
Q 1600 3394 1931 3394 
Q 2300 3394 2536 3241 
Q 2772 3088 2869 2813 
Q 3263 3394 3894 3394 
Q 4388 3394 4653 3120 
Q 4919 2847 4919 2278 
L 4919 0 
L 4359 0 
L 4359 2091 
Q 4359 2428 4304 2576 
Q 4250 2725 4106 2815 
Q 3963 2906 3769 2906 
Q 3419 2906 3187 2673 
Q 2956 2441 2956 1928 
L 2956 0 
L 2394 0 
L 2394 2156 
Q 2394 2531 2256 2718 
Q 2119 2906 1806 2906 
Q 1569 2906 1367 2781 
Q 1166 2656 1075 2415 
Q 984 2175 984 1722 
L 984 0 
L 422 0 
z
" transform="scale(0.015625)"/>
      </defs>
      <use xlink:href="#ArialMT-52"/>
      <use xlink:href="#ArialMT-65" x="72.216797"/>
      <use xlink:href="#ArialMT-64" x="127.832031"/>
      <use xlink:href="#ArialMT-6d" x="183.447266"/>
      <use xlink:href="#ArialMT-6f" x="266.748047"/>
      <use xlink:href="#ArialMT-6e" x="322.363281"/>
      <use xlink:href="#ArialMT-64" x="377.978516"/>
     </g>
    </g>
    <g id="line2d_32">
     <path d="M 545.363125 210.297656 
L 556.363125 210.297656 
L 567.363125 210.297656 
" style="fill: none; stroke: #36ada4; stroke-width: 1.5; stroke-linecap: round"/>
    </g>
    <g id="text_24">
     <!-- Federal Way -->
     <g style="fill: #262626" transform="translate(576.163125 214.147656)scale(0.11 -0.11)">
      <defs>
       <path id="ArialMT-46" d="M 525 0 
L 525 4581 
L 3616 4581 
L 3616 4041 
L 1131 4041 
L 1131 2622 
L 3281 2622 
L 3281 2081 
L 1131 2081 
L 1131 0 
L 525 0 
z
" transform="scale(0.015625)"/>
       <path id="ArialMT-20" transform="scale(0.015625)"/>
       <path id="ArialMT-57" d="M 1294 0 
L 78 4581 
L 700 4581 
L 1397 1578 
Q 1509 1106 1591 641 
Q 1766 1375 1797 1488 
L 2669 4581 
L 3400 4581 
L 4056 2263 
Q 4303 1400 4413 641 
Q 4500 1075 4641 1638 
L 5359 4581 
L 5969 4581 
L 4713 0 
L 4128 0 
L 3163 3491 
Q 3041 3928 3019 4028 
Q 2947 3713 2884 3491 
L 1913 0 
L 1294 0 
z
" transform="scale(0.015625)"/>
      </defs>
      <use xlink:href="#ArialMT-46"/>
      <use xlink:href="#ArialMT-65" x="61.083984"/>
      <use xlink:href="#ArialMT-64" x="116.699219"/>
      <use xlink:href="#ArialMT-65" x="172.314453"/>
      <use xlink:href="#ArialMT-72" x="227.929688"/>
      <use xlink:href="#ArialMT-61" x="261.230469"/>
      <use xlink:href="#ArialMT-6c" x="316.845703"/>
      <use xlink:href="#ArialMT-20" x="339.0625"/>
      <use xlink:href="#ArialMT-57" x="366.845703"/>
      <use xlink:href="#ArialMT-61" x="457.480469"/>
      <use xlink:href="#ArialMT-79" x="513.095703"/>
     </g>
    </g>
    <g id="line2d_33">
     <path d="M 545.363125 225.986406 
L 556.363125 225.986406 
L 567.363125 225.986406 
" style="fill: none; stroke: #38aabf; stroke-width: 1.5; stroke-linecap: round"/>
    </g>
    <g id="text_25">
     <!-- Issaquah -->
     <g style="fill: #262626" transform="translate(576.163125 229.836406)scale(0.11 -0.11)">
      <defs>
       <path id="ArialMT-49" d="M 597 0 
L 597 4581 
L 1203 4581 
L 1203 0 
L 597 0 
z
" transform="scale(0.015625)"/>
       <path id="ArialMT-71" d="M 2538 -1272 
L 2538 353 
Q 2406 169 2170 47 
Q 1934 -75 1669 -75 
Q 1078 -75 651 397 
Q 225 869 225 1691 
Q 225 2191 398 2587 
Q 572 2984 901 3189 
Q 1231 3394 1625 3394 
Q 2241 3394 2594 2875 
L 2594 3319 
L 3100 3319 
L 3100 -1272 
L 2538 -1272 
z
M 803 1669 
Q 803 1028 1072 708 
Q 1341 388 1716 388 
Q 2075 388 2334 692 
Q 2594 997 2594 1619 
Q 2594 2281 2320 2615 
Q 2047 2950 1678 2950 
Q 1313 2950 1058 2639 
Q 803 2328 803 1669 
z
" transform="scale(0.015625)"/>
      </defs>
      <use xlink:href="#ArialMT-49"/>
      <use xlink:href="#ArialMT-73" x="27.783203"/>
      <use xlink:href="#ArialMT-73" x="77.783203"/>
      <use xlink:href="#ArialMT-61" x="127.783203"/>
      <use xlink:href="#ArialMT-71" x="183.398438"/>
      <use xlink:href="#ArialMT-75" x="239.013672"/>
      <use xlink:href="#ArialMT-61" x="294.628906"/>
      <use xlink:href="#ArialMT-68" x="350.244141"/>
     </g>
    </g>
    <g id="line2d_34">
     <path d="M 545.363125 241.54625 
L 556.363125 241.54625 
L 567.363125 241.54625 
" style="fill: none; stroke: #3ba3ec; stroke-width: 1.5; stroke-linecap: round"/>
    </g>
    <g id="text_26">
     <!-- Kirkland -->
     <g style="fill: #262626" transform="translate(576.163125 245.39625)scale(0.11 -0.11)">
      <defs>
       <path id="ArialMT-6b" d="M 425 0 
L 425 4581 
L 988 4581 
L 988 1969 
L 2319 3319 
L 3047 3319 
L 1778 2088 
L 3175 0 
L 2481 0 
L 1384 1697 
L 988 1316 
L 988 0 
L 425 0 
z
" transform="scale(0.015625)"/>
      </defs>
      <use xlink:href="#ArialMT-4b"/>
      <use xlink:href="#ArialMT-69" x="66.699219"/>
      <use xlink:href="#ArialMT-72" x="88.916016"/>
      <use xlink:href="#ArialMT-6b" x="122.216797"/>
      <use xlink:href="#ArialMT-6c" x="172.216797"/>
      <use xlink:href="#ArialMT-61" x="194.433594"/>
      <use xlink:href="#ArialMT-6e" x="250.048828"/>
      <use xlink:href="#ArialMT-64" x="305.664062"/>
     </g>
    </g>
    <g id="line2d_35">
     <path d="M 545.363125 257.106094 
L 556.363125 257.106094 
L 567.363125 257.106094 
" style="fill: none; stroke: #a48cf4; stroke-width: 1.5; stroke-linecap: round"/>
    </g>
    <g id="text_27">
     <!-- Bellevue -->
     <g style="fill: #262626" transform="translate(576.163125 260.956094)scale(0.11 -0.11)">
      <defs>
       <path id="ArialMT-42" d="M 469 0 
L 469 4581 
L 2188 4581 
Q 2713 4581 3030 4442 
Q 3347 4303 3526 4014 
Q 3706 3725 3706 3409 
Q 3706 3116 3547 2856 
Q 3388 2597 3066 2438 
Q 3481 2316 3704 2022 
Q 3928 1728 3928 1328 
Q 3928 1006 3792 729 
Q 3656 453 3456 303 
Q 3256 153 2954 76 
Q 2653 0 2216 0 
L 469 0 
z
M 1075 2656 
L 2066 2656 
Q 2469 2656 2644 2709 
Q 2875 2778 2992 2937 
Q 3109 3097 3109 3338 
Q 3109 3566 3000 3739 
Q 2891 3913 2687 3977 
Q 2484 4041 1991 4041 
L 1075 4041 
L 1075 2656 
z
M 1075 541 
L 2216 541 
Q 2509 541 2628 563 
Q 2838 600 2978 687 
Q 3119 775 3209 942 
Q 3300 1109 3300 1328 
Q 3300 1584 3169 1773 
Q 3038 1963 2805 2039 
Q 2572 2116 2134 2116 
L 1075 2116 
L 1075 541 
z
" transform="scale(0.015625)"/>
       <path id="ArialMT-76" d="M 1344 0 
L 81 3319 
L 675 3319 
L 1388 1331 
Q 1503 1009 1600 663 
Q 1675 925 1809 1294 
L 2547 3319 
L 3125 3319 
L 1869 0 
L 1344 0 
z
" transform="scale(0.015625)"/>
      </defs>
      <use xlink:href="#ArialMT-42"/>
      <use xlink:href="#ArialMT-65" x="66.699219"/>
      <use xlink:href="#ArialMT-6c" x="122.314453"/>
      <use xlink:href="#ArialMT-6c" x="144.53125"/>
      <use xlink:href="#ArialMT-65" x="166.748047"/>
      <use xlink:href="#ArialMT-76" x="222.363281"/>
      <use xlink:href="#ArialMT-75" x="272.363281"/>
      <use xlink:href="#ArialMT-65" x="327.978516"/>
     </g>
    </g>
    <g id="line2d_36">
     <path d="M 545.363125 272.665938 
L 556.363125 272.665938 
L 567.363125 272.665938 
" style="fill: none; stroke: #e866f4; stroke-width: 1.5; stroke-linecap: round"/>
    </g>
    <g id="text_28">
     <!-- Woodinville -->
     <g style="fill: #262626" transform="translate(576.163125 276.515938)scale(0.11 -0.11)">
      <use xlink:href="#ArialMT-57"/>
      <use xlink:href="#ArialMT-6f" x="92.634766"/>
      <use xlink:href="#ArialMT-6f" x="148.25"/>
      <use xlink:href="#ArialMT-64" x="203.865234"/>
      <use xlink:href="#ArialMT-69" x="259.480469"/>
      <use xlink:href="#ArialMT-6e" x="281.697266"/>
      <use xlink:href="#ArialMT-76" x="337.3125"/>
      <use xlink:href="#ArialMT-69" x="387.3125"/>
      <use xlink:href="#ArialMT-6c" x="409.529297"/>
      <use xlink:href="#ArialMT-6c" x="431.746094"/>
      <use xlink:href="#ArialMT-65" x="453.962891"/>
     </g>
    </g>
    <g id="line2d_37">
     <path d="M 545.363125 288.225781 
L 556.363125 288.225781 
L 567.363125 288.225781 
" style="fill: none; stroke: #f668c2; stroke-width: 1.5; stroke-linecap: round"/>
    </g>
    <g id="text_29">
     <!-- Sammamish -->
     <g style="fill: #262626" transform="translate(576.163125 292.075781)scale(0.11 -0.11)">
      <use xlink:href="#ArialMT-53"/>
      <use xlink:href="#ArialMT-61" x="66.699219"/>
      <use xlink:href="#ArialMT-6d" x="122.314453"/>
      <use xlink:href="#ArialMT-6d" x="205.615234"/>
      <use xlink:href="#ArialMT-61" x="288.916016"/>
      <use xlink:href="#ArialMT-6d" x="344.53125"/>
      <use xlink:href="#ArialMT-69" x="427.832031"/>
      <use xlink:href="#ArialMT-73" x="450.048828"/>
      <use xlink:href="#ArialMT-68" x="500.048828"/>
     </g>
    </g>
   </g>
  </g>
 </g>
 <defs>
  <clipPath id="p74f88d3367">
   <rect x="90" y="86.4" width="558" height="543.6"/>
  </clipPath>
 </defs>
</svg>
